<svg width="567" height="507" viewBox="0 0 567 507" fill="none" xmlns="http://www.w3.org/2000/svg">
<g opacity="0.901961">
<path d="M19.5 0.5H19.75H33.25H33.5V1.5H33.75H36.25H36.5V2.5H38.5V3.5C38.75 3.5 39.3333 3.5 40.25 3.5H40.5V4.5H42.5V5.5H43.5V6.5H45.5V7.5H46.5V8.5H48.5V9.5H49.5V10.5H50.5V11.5C50.75 11.5 51.3333 11.5 52.25 11.5H52.5V12.5H54.5V13.5H55.5V14.5H57.5V15.5H58.5V16.5H59.5V17.5H61.5V18.5H62.5V19.5H64.5V20.5H65.5V21.5H67.5V22.5H68.5V23.5H70.5V24.5H71.5V25.5H72.5V26.5H74.5V27.5H75.5V28.5H77.5V29.5H78.5V30.5H79.5V31.5H81.5V32.5H82.5V33.5H83.5V34.5H84.5V35.5C84.75 35.5 85.3333 35.5 86.25 35.5H86.5V36.5H88.5V37.5H89.5V38.5H91.5V39.5H92.5V40.5H94.5V41.5H95.5V42.5H96.5V43.5H98.5V44.5H99.5V45.5C99.75 45.5 100.333 45.5 101.25 45.5H101.5V46.5H103.5V47.5H104.5V48.5H105.5V49.5H107.5V50.5H108.5V51.5H109.5V52.5H111.5V53.5H112.5V54.5H114.5V55.5C114.75 55.5 115.333 55.5 116.25 55.5H116.5V56.5H118.5V57.5H119.5V58.5H120.5V59.5H122.5V60.5H123.5V61.5H124.5V62.5H125.5V63.5H127.5V64.5H128.5V65.5C128.75 65.5 129.333 65.5 130.25 65.5H130.5V66.5H132.5V67.5H133.5V68.5H134.5V69.5H135.5V70.5H137.5V71.5H138.5V72.5H140.5V73.5H141.5V74.5H143.5V75.5H144.5V76.5H146.5V77.5H147.5V78.5H149.5V79.5H150.5V80.5C150.75 80.5 151.333 80.5 152.25 80.5H152.5V81.5H154.5V82.5H155.5V83.5H156.5V84.5H158.5V85.5H159.5V86.5H160.5V87.5H162.5V88.5H163.5V89.5H165.5V90.5H166.5V91.5H167.5V92.5H169.5V93.5H170.5V94.5H171.5V95.5H172.5V96.5H173.5V97.5H174.5V99.5H175.5V100.5H176.5V100.75V103.25V103.5H177.5V105.5H178.5V105.75V111.25V111.5H179.5V111.75V125.25V125.5H180.5V126.5H180.75H190.25H190.5V127.5H190.75H529.25H529.5V126.5H529.75H536.25H536.5V127.5H536.75H543.25H543.5V128.5H543.75H546.25H546.5V129.5H548.5V130.5H549.5V131.5H551.5V132.5H552.5V133.5H553.5V134.5H554.5V135.5H556.5V137.5H557.5V138.5H558.5V139.5H559.5V140.5H560.5V141.5H561.5V142.5H562.5V144.5H563.5V146.5H564.5V148.5H565.5V148.75V154.25V154.5H566.5V154.75V167.25V167.5H565.5V167.75V170.25V170.5H564.5V170.75V173.25V173.5H563.5V175.5H562.5V177.5H561.5V179.5H560.5V181.5H559.5V183.5H558.5C558.5 183.75 558.5 184.333 558.5 185.25V185.5H557.5V187.5H556.5V188.5H555.5V188.75V191.25V191.5H554.5V191.75V194.25V194.5H553.5V195.5H552.5V197.5H551.5V197.75V200.25V200.5H550.5V202.5H549.5V204.5H548.5V206.5H547.5V206.75V209.25V209.5H546.5V211.5H545.5V211.75V214.25V214.5H544.5V216.5H543.5V216.75V219.25V219.5H542.5V221.5H541.5V223.5H540.5V225.5H539.5V225.75V228.25V228.5H538.5V230.5H537.5V232.5H536.5V234.5H535.5V236.5H534.5V238.5H533.5V240.5H532.5V240.75V243.25V243.5H531.5V245.5H530.5V247.5H529.5V249.5H528.5V251.5H527.5V253.5H526.5V255.5H525.5V255.75V258.25V258.5H524.5V260.5H523.5V262.5H522.5V264.5H521.5V266.5H520.5V266.75V269.25V269.5H519.5V271.5H518.5V273.5H517.5V275.5H516.5V277.5H515.5C515.5 277.75 515.5 278.333 515.5 279.25V279.5H514.5V281.5H513.5V281.75V284.25V284.5H512.5V286.5H511.5V288.5H510.5V290.5H509.5V290.75V293.25V293.5H508.5V295.5H507.5V296.5H506.5V296.75V299.25V299.5H505.5V299.75V302.25V302.5H504.5V304.5H503.5V306.5H502.5V308.5H501.5V310.5H500.5V310.75V313.25V313.5H499.5V315.5H498.5V315.75V318.25V318.5H497.5V320.5H496.5V322.5H495.5V324.5H494.5C494.5 324.75 494.5 325.333 494.5 326.25V326.5H493.5V328.5H492.5V329.5H491.5C491.5 329.75 491.5 330.333 491.5 331.25V331.5H490.5V333.5H489.5V334.5H488.5V336.5H487.5V337.5H486.5V339.5H485.5V340.5H484.5V341.5H483.5V342.5H482.5V343.5H481.5V344.5H480.5V345.5H479.5V346.5H478.5V347.5H477.5V348.5H476.5V349.5H475.5V350.5H473.5V351.5H472.5V352.5C472.25 352.5 471.667 352.5 470.75 352.5H470.5V353.5H468.5V354.5H467.5V355.5H465.5V356.5H465.25H462.75H462.5V357.5H460.5V358.5H460.25H457.75H457.5V359.5H455.5V360.5H455.25H452.75H452.5V361.5H452.25H448.75H448.5V362.5H448.25H443.75H443.5V363.5H443.25H180.75C180.5 363.417 180.417 363.5 180.5 363.75C180.5 364.667 180.5 365.25 180.5 365.5H179.5V367.5H180.5V367.75V371.25V371.5H181.5V373.5H182.5V375.5H183.5V376.5H184.5C184.5 376.75 184.5 377.333 184.5 378.25V378.5H185.5V380.5H186.5V381.5H187.5V382.5H188.5V384.5H189.5V385.5H190.5V386.5H192.5V387.5H194.5V388.5H194.75H197.25H197.5V389.5H197.75H200.25H200.5V390.5H200.75H207.25H207.5V391.5H207.75H505.25H505.5V392.5H505.75H512.25H512.5V393.5H514.5V394.5H516.5V395.5H518.5V396.5H519.5V397.5H520.5V398.5H521.5V399.5H522.5V400.5H523.5V401.5H524.5V403.5H525.5V405.5H526.5V407.5H527.5V407.75V410.25V410.5H528.5V410.75V413.25V413.5H529.5V413.75V422.25V422.5H528.5V422.75V426.25V426.5H527.5V428.5H526.5V430.5H525.5C525.5 430.75 525.5 431.333 525.5 432.25V432.5H524.5V434.5H523.5V435.5H522.5V436.5H521.5V437.5H520.5V438.5H518.5V439.5H517.5V440.5H515.5V441.5H515.25H512.75H512.5V442.5H512.25H509.75H509.5V443.5H509.25H431.75C431.5 443.417 431.417 443.5 431.5 443.75V449.25V449.5H432.5V449.75V454.25V454.5H433.5V454.75V463.25V463.5H432.5V463.75V469.25V469.5H431.5V469.75V473.25V473.5H430.5V473.75V476.25V476.5H429.5V476.75V479.25V479.5H428.5C428.5 479.75 428.5 480.333 428.5 481.25V481.5H427.5V483.5H426.5V484.5H425.5V486.5H424.5V487.5H423.5V488.5H422.5V489.5H421.5V491.5H420.5V492.5H419.5V493.5H417.5V494.5H416.5V495.5H415.5V496.5H413.5V497.5H412.5V498.5H410.5V499.5H409.5V500.5H408.5V501.5H408.25H405.75H405.5V502.5H403.5V503.5H403.25H400.75H400.5V504.5H400.25H397.75H397.5V505.5H397.25H392.75H392.5V506.5H392.25H380.75H380.5V505.5H380.25H375.75H375.5V504.5H375.25H372.75H372.5V503.5H372.25H369.75H369.5V502.5H369.25H366.75H366.5V501.5H366.25H363.75H363.5V500.5H361.5V499.5H360.5V498.5H358.5V497.5H357.5V496.5H355.5V495.5H354.5V494.5H353.5V493.5H352.5V492.5H351.5V491.5H350.5V490.5H349.5V488.5H348.5V487.5H347.5V485.5H346.5V484.5H345.5V482.5H344.5V482.25V479.75V479.5H343.5V477.5H342.5V477.25V474.75V474.5H341.5V474.25V470.75V470.5H340.5V470.25V466.75V466.5H339.5V466.25V462.75V462.5H338.5V462.25V453.75V453.5H339.5V453.25V449.75V449.5H340.5V449.25V444.75V444.5H341.5V443.5H341.25H299.75C299.5 443.417 299.417 443.5 299.5 443.75V449.25V449.5H300.5V449.75V454.25V454.5H301.5V454.75V460.25V460.5H300.5V460.75V467.25V467.5H299.5V467.75V471.25V471.5H298.5V471.75V476.25V476.5H297.5V478.5H296.5V480.5H295.5C295.5 480.75 295.5 481.333 295.5 482.25V482.5H294.5V484.5H293.5V485.5H292.5V487.5H291.5V488.5H290.5V489.5H289.5V491.5H288.5V492.5H287.5V493.5H286.5V494.5H285.5V495.5H283.5V496.5H282.5V497.5H281.5V498.5H279.5V499.5H277.5V500.5H275.5V501.5H273.5V502.5H271.5V503.5H271.25H268.75H268.5V504.5H268.25H265.75H265.5V505.5H265.25H260.75H260.5V506.5H260.25H247.75H247.5V505.5H247.25H242.75H242.5V504.5H242.25H239.75H239.5V503.5H239.25H236.75H236.5V502.5H236.25H233.75H233.5V501.5C233.25 501.5 232.667 501.5 231.75 501.5H231.5V500.5H229.5V499.5H228.5V498.5C228.25 498.5 227.667 498.5 226.75 498.5H226.5V497.5H224.5V496.5H223.5V495.5H222.5V494.5H221.5V493.5H220.5V492.5H219.5V491.5H218.5V489.5H217.5V488.5H216.5V487.5H215.5V486.5H214.5V484.5H213.5V482.5H212.5V480.5H211.5V478.5H210.5V478.25V475.75V475.5H209.5V475.25V472.75V472.5H208.5V472.25V467.75V467.5H207.5V467.25V450.75V450.5H208.5V450.25V446.75V446.5H209.5V446.25V443.75V443.5H209.25H146.75H146.5V442.5H146.25H143.75H143.5V441.5H143.25H140.75H140.5V440.5H138.5V439.5H137.5V438.5H136.5V437.5H134.5V436.5H133.5V435.5H132.5V434.5H131.5V432.5H130.5V430.5H129.5V428.5H128.5V428.25V425.75V425.5H127.5V425.25V420.75V420.5H126.5V420.25V356.75V356.5H125.5V356.25V353.75V353.5H126.5V353.25V335.75V335.5H127.5V335.25V330.75V330.5H128.5V330.25V325.75V325.5H129.5V325.25V317.75C129.417 317.5 129.5 317.417 129.75 317.5C130.667 317.5 131.25 317.5 131.5 317.5V316.5H132.5V316.25V313.75V313.5H133.5V311.5H135.5V310.5H136.5V308.5H137.5V308.25V305.75V305.5H138.5V304.5H139.5V303.5H140.5V302.5H141.5V300.5H143.5V299.5H144.5V298.5H145.5V297.5H146.5V296.5H147.5V295.5C147.75 295.5 148.333 295.5 149.25 295.5H149.5V294.5H151.5V293.5H152.5V292.5H154.5V291.5H154.75H157.25H157.5V290.5H159.5V289.5H161.5V288.5H161.75H165.25H165.5V287.5H165.75H171.25H171.5V286.5H171.75H185.25H185.5V287.5H185.75H192.25H192.5V288.5H192.75H197.25H197.5V289.5H197.75H201.25H201.5V290.5H203.5V291.5H203.75H206.25H206.5V292.5C206.75 292.5 207.333 292.5 208.25 292.5H208.5V293.5H210.5V294.5H211.5V295.5H211.75H214.25H214.5V296.5H216.5V297.5H217.5V298.5H219.5V299.5C219.75 299.5 220.333 299.5 221.25 299.5H221.5V300.5H223.5V301.5H224.5V302.5H226.5V303.5H228.5V304.5H230.5V305.5H232.5V306.5H234.5V307.5H234.75H237.25H237.5V308.5H239.5V309.5H241.5V310.5H243.5V311.5H243.75H246.25H246.5V312.5H246.75H249.25H249.5V313.5H251.5V314.5H251.75H254.25H254.5V315.5H254.75H257.25H257.5V316.5H257.75H260.25H260.5V317.5H260.75H263.25H263.5V318.5H263.75H266.25H266.5V319.5H266.75H270.25H270.5V320.5H270.75H274.25H274.5V321.5H274.75H278.25H278.5V322.5H278.75H285.25H285.5V323.5H285.75H297.25H297.5V324.5H297.75H309.25H309.5V325.5H309.75H330.25H330.5V324.5H330.75H338.25H338.5V323.5H338.75H346.25H346.5V322.5H346.75H352.25H352.5V321.5H352.75H356.25H356.5V320.5H356.75H360.25H360.5V319.5H360.75H364.25H364.5V318.5H364.75H367.25H367.5V317.5H367.75H370.25H370.5V316.5H370.75H374.25H374.5V315.5H376.5V314.5H376.75H379.25H379.5V313.5H381.5V312.5H381.75H384.25H384.5V311.5H386.5V310.5H388.5V309.5H388.75H391.25H391.5V308.5H393.5V307.5H394.5V306.5H396.5V305.5H398.5V304.5C398.75 304.5 399.333 304.5 400.25 304.5H400.5V303.5H402.5V302.5H403.5V301.5H405.5V300.5H406.5V299.5H408.5V298.5H410.5V297.5H411.5V296.5C411.75 296.5 412.333 296.5 413.25 296.5H413.5V295.5H415.5V294.5H416.5V293.5H417.5V292.5H418.5V291.5H420.5V290.5H421.5V289.5H422.5V288.5H424.5V287.5H425.5V286.5H426.5V285.5H427.5V284.5H428.5V283.5H429.5V282.5H431.5V281.5H432.5V280.5H433.5V279.5H434.5V278.5H435.5V277.5H436.5V276.5H437.5V275.5H438.5V274.5H439.5V273.5H440.5V272.5H441.5V271.5H442.5V270.5H443.5V269.5H444.5V267.5H445.5V266.5H446.5V265.5H447.5V264.5H448.5V262.5H449.5V261.5H450.5V259.5H451.5V258.5H452.5V256.5H453.5V255.5H454.5V253.5H455.5V251.5H456.5V250.5H457.5V248.5H458.5C458.5 248.25 458.5 247.667 458.5 246.75V246.5H459.5V244.5H460.5V243.5H461.5V242.5H462.5V240.5H463.5V240.25V237.75V237.5H464.5V235.5H465.5V233.5H466.5V231.5H467.5V231.25V228.75V228.5H468.5V228.25V225.75V225.5H469.5V225.25V222.75V222.5H470.5V222.25V219.75V219.5H471.5V219.25V213.75V213.5H472.5V211.5H473.5V211.25V207.75V207.5H471.5V208.5H471.25H467.75H467.5V207.5H465.5V208.5H465.25H429.75H429.5V207.5H429.25H415.75H415.5V206.5H415.25H409.75H409.5V205.5H409.25H404.75H404.5V204.5H404.25H400.75H400.5V203.5H400.25H395.75H395.5V202.5H395.25H391.75H391.5V201.5H391.25H387.75H387.5V200.5H387.25H384.75H384.5V199.5H384.25H380.75H380.5V198.5H378.5V197.5H378.25H375.75H375.5V196.5H373.5V195.5H373.25H369.75H369.5V194.5H367.5V193.5H365.5V192.5H363.5V191.5H363.25H360.75H360.5V190.5H359.5V189.5H357.5V188.5H355.5V187.5H355.25H351.75H351.5V186.5H349.5V185.5H348.5V184.5H346.5V183.5H344.5V182.5H342.5V181.5H340.5V180.5H340.25H337.75H337.5V179.5C337.25 179.5 336.667 179.5 335.75 179.5H335.5V178.5H333.5V177.5H332.5V176.5H332.25H329.75H329.5V175.5H327.5V174.5H325.5V173.5H325.25H321.75H321.5V172.5H321.25H317.75H317.5V171.5H317.25H314.75H314.5V170.5H314.25H310.75H310.5V169.5H310.25H305.75H305.5V168.5H305.25H297.75H297.5V167.5H297.25H292.75H292.5V166.5H292.25H286.75H286.5V165.5H286.25H272.75H272.5V166.5H272.25H263.75H263.5V167.5H261.5V168.5H261.25H258.75H258.5V169.5H258.25H246.75H246.5V170.5H246.25H242.75H242.5V171.5H242.25H239.75H239.5V172.5H239.25H235.75H235.5V173.5H235.25H231.75H231.5V174.5H229.5V175.5H227.5V176.5H227.25H223.75H223.5V177.5H221.5V178.5H219.5V179.5H217.5V180.5H217.25H214.75H214.5V181.5H214.25H211.75H211.5V182.5H209.5V183.5H208.5V184.5H206.5V185.5H206.25H203.75H203.5V186.5H202.5V187.5H200.5V188.5C200.25 188.5 199.667 188.5 198.75 188.5H198.5V189.5H196.5V190.5H195.5V191.5H194.5V192.5H192.5V193.5H191.5V194.5H190.5V195.5H188.5V196.5H187.5V197.5H185.5V199.5H184.5V200.5H182.5V201.5H181.5V202.5H180.5V203.5H179.5V204.5H178.5V205.5H177.5V206.5H176.5V207.5H175.5V208.5H173.5V209.5H172.5V211.5H171.5V212.5H170.5V213.5H169.5V215.5H168.5V216.5H167.5V217.5H166.5V219.5H165.5V220.5H164.5V221.5H163.5V222.5H162.5V223.5H161.5C161.5 223.75 161.5 224.333 161.5 225.25V225.5H160.5V227.5H162.5V226.5H162.75H165.25H165.5V225.5H167.5V224.5H168.5V223.5H170.5V222.5H170.75H174.25H174.5V221.5H176.5V220.5H177.5V219.5H177.75H181.25H181.5V218.5H181.75H185.25H185.5V217.5H185.75H188.25H188.5V216.5H188.75H191.25H191.5V215.5H191.75H195.25H195.5V214.5H195.75H202.25H202.5V213.5H202.75H205.25H205.5V212.5H205.75H209.25H209.5V211.5H209.75H222.25H222.5V210.5H222.75H259.25H259.5V211.5H259.75H270.25H270.5V212.5H270.75H278.25H278.5V213.5H278.75H282.25H282.5V214.5H284.5V215.5H284.75H288.25H288.5V216.5H290.5V217.5H290.75H293.25H293.5V218.5H293.75H296.25H296.5V219.5H296.75H299.25H299.5V220.5H301.5V221.5H303.5V222.5H303.75H306.25H306.5V223.5H308.5V224.5H310.5V225.5H312.5V226.5H314.5V227.5H316.5V228.5H318.5V229.5C318.75 229.5 319.333 229.5 320.25 229.5H320.5V230.5H322.5V231.5H323.5V232.5H325.5V233.5H327.5V234.5H329.5V235.5H331.5V236.5H333.5V237.5H335.5V238.5H337.5V239.5H339.5V240.5H339.75H342.25H342.5V241.5H342.75H345.25H345.5V242.5H345.75H348.25H348.5V243.5H350.5V244.5H350.75H353.25H353.5V245.5H353.75H356.25H356.5V246.5H356.75H362.25H362.5V247.5H362.75H369.25H369.5V248.5H369.75H388.25H388.5V247.5H388.75H392.25H392.5V246.5H393.5V247.5H395.5V248.5H396.5V248.75V251.25V251.5H395.5V252.5H395.25H392.75H392.5V253.5H392.25H388.75H388.5V254.5H387.5V255.5H385.5V256.5H383.5V257.5H383.25H379.75H379.5V258.5H379.25H375.75H375.5V259.5H375.25H368.75H368.5V260.5H368.25H348.75H348.5V259.5H348.25H341.75H341.5V258.5H341.25H337.75H337.5V257.5H337.25H331.75H331.5V256.5H331.25H327.75H327.5V255.5H327.25H324.75H324.5V254.5H322.5V253.5H322.25H318.75H318.5V252.5H318.25H315.75H315.5V251.5H315.25H312.75H312.5V250.5H310.5V249.5H310.25H307.75H307.5V248.5H307.25H304.75H304.5V247.5H304.25H301.75H301.5V246.5H301.25H298.75H298.5V245.5H296.5V244.5H296.25H293.75H293.5V243.5H291.5V242.5H291.25H288.75H288.5V241.5H288.25H285.75H285.5V240.5H285.25H281.75H281.5V239.5H281.25H278.75H278.5V238.5H278.25H272.75H272.5V237.5H272.25H265.75H265.5V236.5H265.25H259.75H259.5V235.5H259.25H246.75H246.5V234.5H246.25H243.75H243.5V235.5H243.25H228.75H228.5V236.5H228.25H224.75H224.5V237.5H224.25H217.75H217.5V238.5H217.25H211.75H211.5V239.5H211.25H208.75H208.5V240.5H208.25H205.75H205.5V241.5H205.25H201.75H201.5V242.5H201.25H198.75H198.5V243.5H198.25H195.75H195.5V244.5H193.5V245.5H193.25H190.75H190.5V246.5H190.25H187.75H187.5V247.5H185.5V248.5H183.5V249.5H183.25H180.75H180.5V250.5H179.5V251.5H177.5V252.5H175.5V253.5C175.25 253.5 174.667 253.5 173.75 253.5H173.5V254.5H171.5V255.5H170.5V256.5H169.5V257.5H167.5V258.5H166.5V259.5H164.5V260.5H163.5V261.5H161.5V262.5H160.5V263.5H159.5V264.5H158.5V265.5H157.5V266.5H156.5V267.5H155.5V268.5H154.5V269.5H153.5V270.5H152.5V271.5H151.5V272.5H150.5V273.5H148.5V274.5H147.5V275.5H146.5V276.5H145.5V277.5H144.5V278.5H143.5V279.5H142.5V281.5H141.5V282.5H140.5V283.5H139.5V284.5H138.5V286.5H137.5V288.5H136.5V289.5H135.5V291.5H134.5C134.5 291.75 134.5 292.333 134.5 293.25V293.5H133.5V295.5H131.5V297.5H130.5V297.75V300.25V300.5H129.5V302.5H128.5V303.5H127.5V303.75V306.25V306.5H126.5V306.75V311.25V311.5H125.5V313.5H124.5V315.5H123.5V315.75V319.25V319.5H122.5V319.75V324.25V324.5H121.5V326.5H120.5V326.75V332.25V332.5H119.5V332.75V354.25V354.5H120.5V354.75V360.25V360.5H119.5V362.5C119.25 362.5 118.667 362.5 117.75 362.5H117.5V363.5H115.5V362.5H114.5V360.5H113.5V359.5H112.5V358.5H111.5V356.5H110.5V354.5H109.5V354.25V351.75V351.5H108.5V349.5H107.5V347.5H106.5V347.25V344.75V344.5H105.5V344.25V341.75V341.5H104.5V339.5H103.5V339.25V335.75V335.5H102.5V335.25V329.75V329.5H101.5V329.25V305.75V305.5H102.5V305.25V299.75V299.5H103.5V299.25V295.75V295.5H104.5V295.25V292.75V292.5H105.5V292.25V288.75V288.5H106.5V288.25V285.75V285.5H107.5V283.5H108.5V283.25V280.75V280.5H109.5V278.5H110.5V276.5H111.5V274.5H112.5V272.5H113.5V270.5H114.5V268.5H115.5V266.5H116.5V265.5H117.5V264.5H118.5C118.5 264.25 118.5 263.667 118.5 262.75V262.5H119.5V260.5H120.5V259.5H121.5V257.5H122.5V256.5H123.5V254.5H124.5V253.5H125.5V251.5H126.5V251.25V128.75V128.5H125.5V127.5H124.5V126.5H123.5V125.5H122.5V124.5H121.5V123.5H119.5V122.5H118.5V121.5H116.5V120.5H115.5V119.5H113.5V118.5H112.5V117.5H111.5V116.5H109.5V115.5H108.5V114.5H106.5V113.5H105.5V112.5H103.5V111.5H102.5V110.5H101.5V109.5H99.5V108.5H98.5V107.5H96.5V106.5H95.5V105.5H93.5V104.5H92.5V103.5H90.5V102.5H89.5V101.5H87.5V100.5H86.5V99.5H84.5V98.5H83.5V97.5H81.5V96.5H80.5V95.5H78.5V94.5H77.5V93.5H76.5V92.5C76.25 92.5 75.6667 92.5 74.75 92.5H74.5V91.5H72.5V90.5H71.5V89.5H69.5V88.5H68.5V87.5H66.5V86.5H65.5V85.5H64.5V84.5H62.5V83.5H61.5V82.5H60.5V81.5H58.5V80.5H57.5V79.5H56.5V78.5H55.5V77.5H53.5V76.5H52.5V75.5C52.25 75.5 51.6667 75.5 50.75 75.5H50.5V74.5H48.5V73.5H47.5V72.5C47.25 72.5 46.6667 72.5 45.75 72.5H45.5V71.5H43.5V70.5H42.5V69.5H41.5V68.5H40.5V67.5H38.5V66.5H37.5V65.5C37.25 65.5 36.6667 65.5 35.75 65.5H35.5V64.5H33.5V63.5H32.5V62.5H31.5V61.5H29.5V60.5H28.5V59.5H26.5V58.5H25.5V57.5H24.5V56.5H22.5V55.5H21.5V54.5H19.5V53.5H18.5V52.5H16.5V51.5H15.5V50.5H13.5V49.5H12.5V48.5H10.5V47.5H9.5V46.5H8.5V45.5H7.5V44.5H6.5V43.5H5.5V42.5H4.5C4.5 42.25 4.5 41.6667 4.5 40.75V40.5H3.5V38.5H2.5V37.5H1.5V37.25V33.75V33.5H0.5V33.25V21.75V21.5H1.5V21.25V18.75V18.5H2.5V16.5H3.5C3.5 16.25 3.5 15.6667 3.5 14.75V14.5H4.5V12.5H5.5V11.5H6.5V9.5H7.5V8.5H8.5V7.5H9.5V6.5H10.5V5.5H11.5V4.5H13.5V3.5H14.5V2.5H15.5V1.5H15.75H19.25H19.5V0.5ZM158.5 227.5V229.5H159.5V228.5H160.5V227.5H158.5Z" fill="#1CB055"/>
<path d="M160.5 227.5V225.5H161.5V225.25C161.5 224.333 161.5 223.75 161.5 223.5H162.5V222.5H163.5V221.5H164.5V220.5H165.5V219.5H166.5V217.5H167.5V216.5H168.5V215.5H169.5V213.5H170.5V212.5H171.5V211.5H172.5V209.5H173.5V208.5H175.5V207.5H176.5V206.5H177.5V205.5H178.5V204.5H179.5V203.5H180.5V202.5H181.5V201.5H182.5V200.5H184.5V199.5H185.5V197.5H187.5V196.5H188.5V195.5H190.5V194.5H191.5V193.5H192.5V192.5H194.5V191.5H195.5V190.5H196.5V189.5H198.5V188.5H198.75C199.667 188.5 200.25 188.5 200.5 188.5V187.5H202.5V186.5H203.5V185.5H203.75H206.25H206.5V184.5H208.5V183.5H209.5V182.5H211.5V181.5H211.75H214.25H214.5V180.5H214.75H217.25H217.5V179.5H219.5V178.5H221.5V177.5H223.5V176.5H223.75H227.25H227.5V175.5H229.5V174.5H231.5V173.5H231.75H235.25H235.5V172.5H235.75H239.25H239.5V171.5H239.75H242.25H242.5V170.5H242.75H246.25H246.5V169.5H246.75H258.25H258.5V168.5H258.75H261.25H261.5V167.5H263.5V166.5H263.75H272.25H272.5V165.5H272.75H286.25H286.5V166.5H286.75H292.25H292.5V167.5H292.75H297.25H297.5V168.5H297.75H305.25H305.5V169.5H305.75H310.25H310.5V170.5H310.75H314.25H314.5V171.5H314.75H317.25H317.5V172.5H317.75H321.25H321.5V173.5H321.75H325.25H325.5V174.5H327.5V175.5H329.5V176.5H329.75H332.25H332.5V177.5H333.5V178.5H335.5V179.5H335.75C336.667 179.5 337.25 179.5 337.5 179.5V180.5H337.75H340.25H340.5V181.5H342.5V182.5H344.5V183.5H346.5V184.5H348.5V185.5H349.5V186.5H351.5V187.5H351.75H355.25H355.5V188.5H357.5V189.5H359.5V190.5H360.5V191.5H360.75H363.25H363.5V192.5H365.5V193.5H367.5V194.5H369.5V195.5H369.75H373.25H373.5V196.5H375.5V197.5H375.75H378.25H378.5V198.5H380.5V199.5H380.75H384.25H384.5V200.5H384.75H387.25H387.5V201.5H387.75H391.25H391.5V202.5H391.75H395.25H395.5V203.5H395.75H400.25H400.5V204.5H400.75H404.25H404.5V205.5H404.75H409.25H409.5V206.5H409.75H415.25H415.5V207.5H415.75H429.25H429.5V208.5H429.75H465.25H465.5V207.5H467.5V208.5H467.75H471.25H471.5V207.5H473.5V207.75V211.25V211.5H472.5V213.5H471.5V213.75V219.25V219.5H470.5V219.75V222.25V222.5H469.5V222.75V225.25V225.5H468.5V225.75V228.25V228.5H467.5V228.75V231.25V231.5H466.5V233.5H465.5V235.5H464.5V237.5H463.5V237.75V240.25V240.5H462.5V242.5H461.5V243.5H460.5V244.5H459.5V246.5H458.5V246.75C458.5 247.667 458.5 248.25 458.5 248.5H457.5V250.5H456.5V251.5H455.5V253.5H454.5V255.5H453.5V256.5H452.5V258.5H451.5V259.5H450.5V261.5H449.5V262.5H448.5V264.5H447.5V265.5H446.5V266.5H445.5V267.5H444.5V269.5H443.5V270.5H442.5V271.5H441.5V272.5H440.5V273.5H439.5V274.5H438.5V275.5H437.5V276.5H436.5V277.5H435.5V278.5H434.5V279.5H433.5V280.5H432.5V281.5H431.5V282.5H429.5V283.5H428.5V284.5H427.5V285.5H426.5V286.5H425.5V287.5H424.5V288.5H422.5V289.5H421.5V290.5H420.5V291.5H418.5V292.5H417.5V293.5H416.5V294.5H415.5V295.5H413.5V296.5H413.25C412.333 296.5 411.75 296.5 411.5 296.5V297.5H410.5V298.5H408.5V299.5H406.5V300.5H405.5V301.5H403.5V302.5H402.5V303.5H400.5V304.5H400.25C399.333 304.5 398.75 304.5 398.5 304.5V305.5H396.5V306.5H394.5V307.5H393.5V308.5H391.5V309.5H391.25H388.75H388.5V310.5H386.5V311.5H384.5V312.5H384.25H381.75H381.5V313.5H379.5V314.5H379.25H376.75H376.5V315.5H374.5V316.5H374.25H370.75H370.5V317.5H370.25H367.75H367.5V318.5H367.25H364.75H364.5V319.5H364.25H360.75H360.5V320.5H360.25H356.75H356.5V321.5H356.25H352.75H352.5V322.5H352.25H346.75H346.5V323.5H346.25H338.75H338.5V324.5H338.25H330.75H330.5V325.5H330.25H309.75H309.5V324.5H309.25H297.75H297.5V323.5H297.25H285.75H285.5V322.5H285.25H278.75H278.5V321.5H278.25H274.75H274.5V320.5H274.25H270.75H270.5V319.5H270.25H266.75H266.5V318.5H266.25H263.75H263.5V317.5H263.25H260.75H260.5V316.5H260.25H257.75H257.5V315.5H257.25H254.75H254.5V314.5H254.25H251.75H251.5V313.5H249.5V312.5H249.25H246.75H246.5V311.5H246.25H243.75H243.5V310.5H241.5V309.5H239.5V308.5H237.5V307.5H237.25H234.75H234.5V306.5H232.5V305.5H230.5V304.5H228.5V303.5H226.5V302.5H224.5V301.5H223.5V300.5H221.5V299.5H221.25C220.333 299.5 219.75 299.5 219.5 299.5V298.5H217.5V297.5H216.5V296.5H214.5V295.5H214.25H211.75H211.5V294.5H210.5V293.5H208.5V292.5H208.25C207.333 292.5 206.75 292.5 206.5 292.5V291.5H206.25H203.75H203.5V290.5H201.5V289.5H201.25H197.75H197.5V288.5H197.25H192.75H192.5V287.5H192.25H185.75H185.5V286.5H185.25H171.75H171.5V287.5H171.25H165.75H165.5V288.5H165.25H161.75H161.5V289.5H159.5V290.5H157.5V291.5H157.25H154.75H154.5V292.5H152.5V293.5H151.5V294.5H149.5V295.5H149.25C148.333 295.5 147.75 295.5 147.5 295.5V296.5H146.5V297.5H145.5V298.5H144.5V299.5H143.5V300.5H141.5V302.5H140.5V303.5H139.5V304.5H138.5V305.5H137.5V305.75V308.25V308.5H136.5V310.5H135.5V311.5H133.5V313.5H132.5V313.75V316.25V316.5H131.5V317.5C131.25 317.5 130.667 317.5 129.75 317.5C129.5 317.417 129.417 317.5 129.5 317.75V325.25V325.5H128.5V325.75V330.25V330.5H127.5V330.75V335.25V335.5H126.5V335.75V353.25V353.5H125.5V353.75V356.25V356.5H126.5V356.75V420.25V420.5H127.5V420.75V425.25V425.5H128.5V425.75V428.25V428.5H129.5V430.5H130.5V432.5H131.5V434.5H132.5V435.5H133.5V436.5H134.5V437.5H136.5V438.5H137.5V439.5H138.5V440.5H140.5V441.5H140.75H143.25H143.5V442.5H143.75H146.25H146.5V443.5H146.75H209.25H209.5V443.75V446.25V446.5H208.5V446.75V450.25V450.5H207.5V450.75V467.25V467.5H208.5V467.75V472.25V472.5H209.5V472.75V475.25V475.5H210.5V475.75V478.25V478.5H211.5V480.5H212.5V482.5H213.5V484.5H214.5V486.5H215.5V487.5H216.5V488.5H217.5V489.5H218.5V491.5H219.5V492.5H220.5V493.5H221.5V494.5H222.5V495.5H223.5V496.5H224.5V497.5H226.5V498.5H226.75C227.667 498.5 228.25 498.5 228.5 498.5V499.5H229.5V500.5H231.5V501.5H231.75C232.667 501.5 233.25 501.5 233.5 501.5V502.5H233.75H236.25H236.5V503.5H236.75H239.25H239.5V504.5H239.75H242.25H242.5V505.5H242.75H247.25H247.5V506.5H247.75H260.25H260.5V505.5H260.75H265.25H265.5V504.5H265.75H268.25H268.5V503.5H268.75H271.25H271.5V502.5H273.5V501.5H275.5V500.5H277.5V499.5H279.5V498.5H281.5V497.5H282.5V496.5H283.5V495.5H285.5V494.5H286.5V493.5H287.5V492.5H288.5V491.5H289.5V489.5H290.5V488.5H291.5V487.5H292.5V485.5H293.5V484.5H294.5V482.5H295.5V482.25C295.5 481.333 295.5 480.75 295.5 480.5H296.5V478.5H297.5V476.5H298.5V476.25V471.75V471.5H299.5V471.25V467.75V467.5H300.5V467.25V460.75V460.5H301.5V460.25V454.75V454.5H300.5V454.25V449.75V449.5H299.5V449.25V443.75C299.417 443.5 299.5 443.417 299.75 443.5H341.25H341.5V444.5H340.5V444.75V449.25V449.5H339.5V449.75V453.25V453.5H338.5V453.75V462.25V462.5H339.5V462.75V466.25V466.5H340.5V466.75V470.25V470.5H341.5V470.75V474.25V474.5H342.5V474.75V477.25V477.5H343.5V479.5H344.5V479.75V482.25V482.5H345.5V484.5H346.5V485.5H347.5V487.5H348.5V488.5H349.5V490.5H350.5V491.5H351.5V492.5H352.5V493.5H353.5V494.5H354.5V495.5H355.5V496.5H357.5V497.5H358.5V498.5H360.5V499.5H361.5V500.5H363.5V501.5H363.75H366.25H366.5V502.5H366.75H369.25H369.5V503.5H369.75H372.25H372.5V504.5H372.75H375.25H375.5V505.5H375.75H380.25H380.5V506.5H380.75H392.25H392.5V505.5H392.75H397.25H397.5V504.5H397.75H400.25H400.5V503.5H400.75H403.25H403.5V502.5H405.5V501.5H405.75H408.25H408.5V500.5H409.5V499.5H410.5V498.5H412.5V497.5H413.5V496.5H415.5V495.5H416.5V494.5H417.5V493.5H419.5V492.5H420.5V491.5H421.5V489.5H422.5V488.5H423.5V487.5H424.5V486.5H425.5V484.5H426.5V483.5H427.5V481.5H428.5V481.25C428.5 480.333 428.5 479.75 428.5 479.5H429.5V479.25V476.75V476.5H430.5V476.25V473.75V473.5H431.5V473.25V469.75V469.5H432.5V469.25V463.75V463.5H433.5V463.25V454.75V454.5H432.5V454.25V449.75V449.5H431.5V449.25V443.75C431.417 443.5 431.5 443.417 431.75 443.5H509.25H509.5V442.5H509.75H512.25H512.5V441.5H512.75H515.25H515.5V440.5H517.5V439.5H518.5V438.5H520.5V437.5H521.5V436.5H522.5V435.5H523.5V434.5H524.5V432.5H525.5V432.25C525.5 431.333 525.5 430.75 525.5 430.5H526.5V428.5H527.5V426.5H528.5V426.25V422.75V422.5H529.5V422.25V413.75V413.5H528.5V413.25V410.75V410.5H527.5V410.25V407.75V407.5H526.5V405.5H525.5V403.5H524.5V401.5H523.5V400.5H522.5V399.5H521.5V398.5H520.5V397.5H519.5V396.5H518.5V395.5H516.5V394.5H514.5V393.5H512.5V392.5H512.25H505.75H505.5V391.5H505.25H207.75H207.5V390.5H207.25H200.75H200.5V389.5H200.25H197.75H197.5V388.5H197.25H194.75H194.5V387.5H192.5V386.5H190.5V385.5H189.5V384.5H188.5V382.5H187.5V381.5H186.5V380.5H185.5V378.5H184.5V378.25C184.5 377.333 184.5 376.75 184.5 376.5H183.5V375.5H182.5V373.5H181.5V371.5H180.5V371.25V367.75V367.5H179.5V365.5H180.5C180.5 365.25 180.5 364.667 180.5 363.75C180.417 363.5 180.5 363.417 180.75 363.5H443.25H443.5V362.5H443.75H448.25H448.5V361.5H448.75H452.25H452.5V360.5H452.75H455.25H455.5V359.5H457.5V358.5H457.75H460.25H460.5V357.5H462.5V356.5H462.75H465.25H465.5V355.5H467.5V354.5H468.5V353.5H470.5V352.5H470.75C471.667 352.5 472.25 352.5 472.5 352.5V351.5H473.5V350.5H475.5V349.5H476.5V348.5H477.5V347.5H478.5V346.5H479.5V345.5H480.5V344.5H481.5V343.5H482.5V342.5H483.5V341.5H484.5V340.5H485.5V339.5H486.5V337.5H487.5V336.5H488.5V334.5H489.5V333.5H490.5V331.5H491.5V331.25C491.5 330.333 491.5 329.75 491.5 329.5H492.5V328.5H493.5V326.5H494.5V326.25C494.5 325.333 494.5 324.75 494.5 324.5H495.5V322.5H496.5V320.5H497.5V318.5H498.5V318.25V315.75V315.5H499.5V313.5H500.5V313.25V310.75V310.5H501.5V308.5H502.5V306.5H503.5V304.5H504.5V302.5H505.5V302.25V299.75V299.5H506.5V299.25V296.75V296.5H507.5V295.5H508.5V293.5H509.5V293.25V290.75V290.5H510.5V288.5H511.5V286.5H512.5V284.5H513.5V284.25V281.75V281.5H514.5V279.5H515.5V279.25C515.5 278.333 515.5 277.75 515.5 277.5H516.5V275.5H517.5V273.5H518.5V271.5H519.5V269.5H520.5V269.25V266.75V266.5H521.5V264.5H522.5V262.5H523.5V260.5H524.5V258.5H525.5V258.25V255.75V255.5H526.5V253.5H527.5V251.5H528.5V249.5H529.5V247.5H530.5V245.5H531.5V243.5H532.5V243.25V240.75V240.5H533.5V238.5H534.5V236.5H535.5V234.5H536.5V232.5H537.5V230.5H538.5V228.5H539.5V228.25V225.75V225.5H540.5V223.5H541.5V221.5H542.5V219.5H543.5V219.25V216.75V216.5H544.5V214.5H545.5V214.25V211.75V211.5H546.5V209.5H547.5V209.25V206.75V206.5H548.5V204.5H549.5V202.5H550.5V200.5H551.5V200.25V197.75V197.5H552.5V195.5H553.5V194.5H554.5V194.25V191.75V191.5H555.5V191.25V188.75V188.5H556.5V187.5H557.5V185.5H558.5V185.25C558.5 184.333 558.5 183.75 558.5 183.5H559.5V181.5H560.5V179.5H561.5V177.5H562.5V175.5H563.5V173.5H564.5V173.25V170.75V170.5H565.5V170.25V167.75V167.5H566.5V167.25V154.75V154.5H565.5V154.25V148.75V148.5H564.5V146.5H563.5V144.5H562.5V142.5H561.5V141.5H560.5V140.5H559.5V139.5H558.5V138.5H557.5V137.5H556.5V135.5H554.5V134.5H553.5V133.5H552.5V132.5H551.5V131.5H549.5V130.5H548.5V129.5H546.5V128.5H546.25H543.75H543.5V127.5H543.25H536.75H536.5V126.5H536.25H529.75H529.5V127.5H529.25H190.75H190.5V126.5H190.25H180.75H180.5V125.5H179.5V125.25V111.75V111.5H178.5V111.25V105.75V105.5H177.5V103.5H176.5V103.25V100.75V100.5H175.5V99.5H174.5V97.5H173.5V96.5H172.5V95.5H171.5V94.5H170.5V93.5H169.5V92.5H167.5V91.5H166.5V90.5H165.5V89.5H163.5V88.5H162.5V87.5H160.5V86.5H159.5V85.5H158.5V84.5H156.5V83.5H155.5V82.5H154.5V81.5H152.5V80.5H152.25C151.333 80.5 150.75 80.5 150.5 80.5V79.5H149.5V78.5H147.5V77.5H146.5V76.5H144.5V75.5H143.5V74.5H141.5V73.5H140.5V72.5H138.5V71.5H137.5V70.5H135.5V69.5H134.5V68.5H133.5V67.5H132.5V66.5H130.5V65.5H130.25C129.333 65.5 128.75 65.5 128.5 65.5V64.5H127.5V63.5H125.5V62.5H124.5V61.5H123.5V60.5H122.5V59.5H120.5V58.5H119.5V57.5H118.5V56.5H116.5V55.5H116.25C115.333 55.5 114.75 55.5 114.5 55.5V54.5H112.5V53.5H111.5V52.5H109.5V51.5H108.5V50.5H107.5V49.5H105.5V48.5H104.5V47.5H103.5V46.5H101.5V45.5H101.25C100.333 45.5 99.75 45.5 99.5 45.5V44.5H98.5V43.5H96.5V42.5H95.5V41.5H94.5V40.5H92.5V39.5H91.5V38.5H89.5V37.5H88.5V36.5H86.5V35.5H86.25C85.3333 35.5 84.75 35.5 84.5 35.5V34.5H83.5V33.5H82.5V32.5H81.5V31.5H79.5V30.5H78.5V29.5H77.5V28.5H75.5V27.5H74.5V26.5H72.5V25.5H71.5V24.5H70.5V23.5H68.5V22.5H67.5V21.5H65.5V20.5H64.5V19.5H62.5V18.5H61.5V17.5H59.5V16.5H58.5V15.5H57.5V14.5H55.5V13.5H54.5V12.5H52.5V11.5H52.25C51.3333 11.5 50.75 11.5 50.5 11.5V10.5H49.5V9.5H48.5V8.5H46.5V7.5H45.5V6.5H43.5V5.5H42.5V4.5H40.5V3.5H40.25C39.3333 3.5 38.75 3.5 38.5 3.5V2.5H36.5V1.5H36.25H33.75H33.5V0.5H33.25H19.75H19.5V1.5H19.25H15.75H15.5V2.5H14.5V3.5H13.5V4.5H11.5V5.5H10.5V6.5H9.5V7.5H8.5V8.5H7.5V9.5H6.5V11.5H5.5V12.5H4.5V14.5H3.5V14.75C3.5 15.6667 3.5 16.25 3.5 16.5H2.5V18.5H1.5V18.75V21.25V21.5H0.5V21.75V33.25V33.5H1.5V33.75V37.25V37.5H2.5V38.5H3.5V40.5H4.5V40.75C4.5 41.6667 4.5 42.25 4.5 42.5H5.5V43.5H6.5V44.5H7.5V45.5H8.5V46.5H9.5V47.5H10.5V48.5H12.5V49.5H13.5V50.5H15.5V51.5H16.5V52.5H18.5V53.5H19.5V54.5H21.5V55.5H22.5V56.5H24.5V57.5H25.5V58.5H26.5V59.5H28.5V60.5H29.5V61.5H31.5V62.5H32.5V63.5H33.5V64.5H35.5V65.5H35.75C36.6667 65.5 37.25 65.5 37.5 65.5V66.5H38.5V67.5H40.5V68.5H41.5V69.5H42.5V70.5H43.5V71.5H45.5V72.5H45.75C46.6667 72.5 47.25 72.5 47.5 72.5V73.5H48.5V74.5H50.5V75.5H50.75C51.6667 75.5 52.25 75.5 52.5 75.5V76.5H53.5V77.5H55.5V78.5H56.5V79.5H57.5V80.5H58.5V81.5H60.5V82.5H61.5V83.5H62.5V84.5H64.5V85.5H65.5V86.5H66.5V87.5H68.5V88.5H69.5V89.5H71.5V90.5H72.5V91.5H74.5V92.5H74.75C75.6667 92.5 76.25 92.5 76.5 92.5V93.5H77.5V94.5H78.5V95.5H80.5V96.5H81.5V97.5H83.5V98.5H84.5V99.5H86.5V100.5H87.5V101.5H89.5V102.5H90.5V103.5H92.5V104.5H93.5V105.5H95.5V106.5H96.5V107.5H98.5V108.5H99.5V109.5H101.5V110.5H102.5V111.5H103.5V112.5H105.5V113.5H106.5V114.5H108.5V115.5H109.5V116.5H111.5V117.5H112.5V118.5H113.5V119.5H115.5V120.5H116.5V121.5H118.5V122.5H119.5V123.5H121.5V124.5H122.5V125.5H123.5V126.5H124.5V127.5H125.5V128.5H126.5V128.75V251.25V251.5H125.5V253.5H124.5V254.5H123.5V256.5H122.5V257.5H121.5V259.5H120.5V260.5H119.5V262.5H118.5V262.75C118.5 263.667 118.5 264.25 118.5 264.5H117.5V265.5H116.5V266.5H115.5V268.5H114.5V270.5H113.5V272.5H112.5V274.5H111.5V276.5H110.5V278.5H109.5V280.5H108.5V280.75V283.25V283.5H107.5V285.5H106.5V285.75V288.25V288.5H105.5V288.75V292.25V292.5H104.5V292.75V295.25V295.5H103.5V295.75V299.25V299.5H102.5V299.75V305.25V305.5H101.5V305.75V329.25V329.5H102.5V329.75V335.25V335.5H103.5V335.75V339.25V339.5H104.5V341.5H105.5V341.75V344.25V344.5H106.5V344.75V347.25V347.5H107.5V349.5H108.5V351.5H109.5V351.75V354.25V354.5H110.5V356.5H111.5V358.5H112.5V359.5H113.5V360.5H114.5V362.5H115.5V363.5H117.5V362.5H117.75C118.667 362.5 119.25 362.5 119.5 362.5V360.5H120.5V360.25V354.75V354.5H119.5V354.25V332.75V332.5H120.5V332.25V326.75V326.5H121.5V324.5H122.5V324.25V319.75V319.5H123.5V319.25V315.75V315.5H124.5V313.5H125.5V311.5H126.5V311.25V306.75V306.5H127.5V306.25V303.75V303.5H128.5V302.5H129.5V300.5H130.5V300.25V297.75V297.5H131.5V295.5H133.5V293.5H134.5V293.25C134.5 292.333 134.5 291.75 134.5 291.5H135.5V289.5H136.5V288.5H137.5V286.5H138.5V284.5H139.5V283.5H140.5V282.5H141.5V281.5H142.5V279.5H143.5V278.5H144.5V277.5H145.5V276.5H146.5V275.5H147.5V274.5H148.5V273.5H150.5V272.5H151.5V271.5H152.5V270.5H153.5V269.5H154.5V268.5H155.5V267.5H156.5V266.5H157.5V265.5H158.5V264.5H159.5V263.5H160.5V262.5H161.5V261.5H163.5V260.5H164.5V259.5H166.5V258.5H167.5V257.5H169.5V256.5H170.5V255.5H171.5V254.5H173.5V253.5H173.75C174.667 253.5 175.25 253.5 175.5 253.5V252.5H177.5V251.5H179.5V250.5H180.5V249.5H180.75H183.25H183.5V248.5H185.5V247.5H187.5V246.5H187.75H190.25H190.5V245.5H190.75H193.25H193.5V244.5H195.5V243.5H195.75H198.25H198.5V242.5H198.75H201.25H201.5V241.5H201.75H205.25H205.5V240.5H205.75H208.25H208.5V239.5H208.75H211.25H211.5V238.5H211.75H217.25H217.5V237.5H217.75H224.25H224.5V236.5H224.75H228.25H228.5V235.5H228.75H243.25H243.5V234.5H243.75H246.25H246.5V235.5H246.75H259.25H259.5V236.5H259.75H265.25H265.5V237.5H265.75H272.25H272.5V238.5H272.75H278.25H278.5V239.5H278.75H281.25H281.5V240.5H281.75H285.25H285.5V241.5H285.75H288.25H288.5V242.5H288.75H291.25H291.5V243.5H293.5V244.5H293.75H296.25H296.5V245.5H298.5V246.5H298.75H301.25H301.5V247.5H301.75H304.25H304.5V248.5H304.75H307.25H307.5V249.5H307.75H310.25H310.5V250.5H312.5V251.5H312.75H315.25H315.5V252.5H315.75H318.25H318.5V253.5H318.75H322.25H322.5V254.5H324.5V255.5H324.75H327.25H327.5V256.5H327.75H331.25H331.5V257.5H331.75H337.25H337.5V258.5H337.75H341.25H341.5V259.5H341.75H348.25H348.5V260.5H348.75H368.25H368.5V259.5H368.75H375.25H375.5V258.5H375.75H379.25H379.5V257.5H379.75H383.25H383.5V256.5H385.5V255.5H387.5V254.5H388.5V253.5H388.75H392.25H392.5V252.5H392.75H395.25H395.5V251.5H396.5V251.25V248.75V248.5H395.5V247.5H393.5V246.5H392.5V247.5H392.25H388.75H388.5V248.5H388.25H369.75H369.5V247.5H369.25H362.75H362.5V246.5H362.25H356.75H356.5V245.5H356.25H353.75H353.5V244.5H353.25H350.75H350.5V243.5H348.5V242.5H348.25H345.75H345.5V241.5H345.25H342.75H342.5V240.5H342.25H339.75H339.5V239.5H337.5V238.5H335.5V237.5H333.5V236.5H331.5V235.5H329.5V234.5H327.5V233.5H325.5V232.5H323.5V231.5H322.5V230.5H320.5V229.5H320.25C319.333 229.5 318.75 229.5 318.5 229.5V228.5H316.5V227.5H314.5V226.5H312.5V225.5H310.5V224.5H308.5V223.5H306.5V222.5H306.25H303.75H303.5V221.5H301.5V220.5H299.5V219.5H299.25H296.75H296.5V218.5H296.25H293.75H293.5V217.5H293.25H290.75H290.5V216.5H288.5V215.5H288.25H284.75H284.5V214.5H282.5V213.5H282.25H278.75H278.5V212.5H278.25H270.75H270.5V211.5H270.25H259.75H259.5V210.5H259.25H222.75H222.5V211.5H222.25H209.75H209.5V212.5H209.25H205.75H205.5V213.5H205.25H202.75H202.5V214.5H202.25H195.75H195.5V215.5H195.25H191.75H191.5V216.5H191.25H188.75H188.5V217.5H188.25H185.75H185.5V218.5H185.25H181.75H181.5V219.5H181.25H177.75H177.5V220.5H176.5V221.5H174.5V222.5H174.25H170.75H170.5V223.5H168.5V224.5H167.5V225.5H165.5V226.5H165.25H162.75H162.5V227.5H160.5ZM160.5 227.5V228.5H159.5V229.5H158.5V227.5H160.5Z" stroke="#1CB055"/>
</g>
</svg>
